<svg xmlns="http://www.w3.org/2000/svg" viewBox="0 0 1080 278" width="1080" height="278" font-family="system-ui, -apple-system, 'Segoe UI', Roboto, sans-serif" role="img" aria-label="Career timeline 2020 to 2026 by track">
<rect width="1080" height="278" fill="#ffffff"/>
<text x="34" y="34" fill="#0b0b0b" font-size="17" font-weight="700">Career timeline &#183; engineering &#183; 2020 &#8594; 2026</text>
<rect x="34" y="47" width="10" height="10" rx="2" fill="#6D3BD1"/>
<text x="50" y="56" fill="#52514e" font-size="12">Engineering</text>
<rect x="131.9" y="47" width="10" height="10" rx="2" fill="#0E8F7C"/>
<text x="147.9" y="56" fill="#52514e" font-size="12">AI / ML</text>
<line x1="372.0" y1="64" x2="372.0" y2="234" stroke="#e1e0d9" stroke-width="1"/>
<text x="372.0" y="254" fill="#898781" font-size="12" text-anchor="middle">2020</text>
<line x1="454.7" y1="64" x2="454.7" y2="234" stroke="#e1e0d9" stroke-width="1"/>
<text x="454.7" y="254" fill="#898781" font-size="12" text-anchor="middle">2021</text>
<line x1="537.3" y1="64" x2="537.3" y2="234" stroke="#e1e0d9" stroke-width="1"/>
<text x="537.3" y="254" fill="#898781" font-size="12" text-anchor="middle">2022</text>
<line x1="620.0" y1="64" x2="620.0" y2="234" stroke="#e1e0d9" stroke-width="1"/>
<text x="620.0" y="254" fill="#898781" font-size="12" text-anchor="middle">2023</text>
<line x1="702.7" y1="64" x2="702.7" y2="234" stroke="#e1e0d9" stroke-width="1"/>
<text x="702.7" y="254" fill="#898781" font-size="12" text-anchor="middle">2024</text>
<line x1="785.3" y1="64" x2="785.3" y2="234" stroke="#e1e0d9" stroke-width="1"/>
<text x="785.3" y="254" fill="#898781" font-size="12" text-anchor="middle">2025</text>
<line x1="868.0" y1="64" x2="868.0" y2="234" stroke="#e1e0d9" stroke-width="1"/>
<text x="868.0" y="254" fill="#898781" font-size="12" text-anchor="middle">2026</text>
<text x="358" y="77" fill="#0b0b0b" font-size="12.5" text-anchor="end">Middle Fullstack Developer + AI Engineer</text>
<text x="358" y="90" fill="#898781" font-size="11" text-anchor="end">Tocan Solutions</text>
<rect x="785.3" y="69" width="132.3" height="20" rx="4" fill="#0E8F7C"/>
<text x="358" y="115" fill="#0b0b0b" font-size="12.5" text-anchor="end">Python / Full-Stack Developer</text>
<text x="358" y="128" fill="#898781" font-size="11" text-anchor="end">Freelance &amp; Commercial</text>
<rect x="378.6" y="107" width="539.0" height="20" rx="4" fill="#6D3BD1"/>
<text x="358" y="153" fill="#0b0b0b" font-size="12.5" text-anchor="end">Full-Stack Developer + AI Engineer</text>
<text x="358" y="166" fill="#898781" font-size="11" text-anchor="end">Quorvane Team</text>
<rect x="620.0" y="145" width="165.3" height="20" rx="4" fill="#0E8F7C"/>
<text x="358" y="191" fill="#0b0b0b" font-size="12.5" text-anchor="end">Frontend / Full-Stack Developer</text>
<text x="358" y="204" fill="#898781" font-size="11" text-anchor="end">Veyrala Team</text>
<rect x="620.0" y="183" width="165.3" height="20" rx="4" fill="#6D3BD1"/>
<line x1="372" y1="234" x2="930" y2="234" stroke="#c3c2b7" stroke-width="1"/>
</svg>